#N canvas 335 95 551 525 10;
#X obj 0 0 cnv 15 200 160 empty empty feedback_delay_network 20 12
0 14 -233017 -66577 0;
#X obj 125 387 *~;
#X obj 278 390 *~;
#X obj 88 388 *~;
#X obj 239 390 *~;
#X floatatom 165 311 5 0 1 0 drywet - -, f 5;
#X obj 257 414 +~;
#X obj 102 416 +~;
#X obj 166 334 - 1;
#X obj 165 355 * -1;
#X obj 8 37 hsl 128 15 0 100 0 0 empty empty fbgain -2 -8 0 10 -262144
-1 -1 10350 1;
#X floatatom 147 37 7 0 0 0 - - -, f 7;
#X obj 283 -1 loadbang;
#X obj 308 198 inlet~;
#X obj 103 457 outlet~;
#X obj 255 455 outlet~;
#X obj 7 134 hsl 128 15 0 100 0 0 empty empty mix -2 -8 0 10 -262144
-1 -1 6350 1;
#X floatatom 145 134 5 0 0 0 - - -, f 5;
#X obj 207 199 * 0.01;
#X msg 255 199 50;
#X obj 267 267 gsp-fdn;
#X obj 8 70 hsl 128 15 0 1 0 0 empty empty damping -2 -8 0 10 -262144
-1 -1 3810 1;
#X floatatom 147 70 7 0 0 0 - - -, f 7;
#X msg 204 70 0.3;
#X obj 8 102 hsl 128 15 20 70 0 0 empty empty coupling -2 -8 0 10 -262144
-1 -1 6350 1;
#X floatatom 147 102 7 0 0 0 - - -, f 7;
#X msg 204 102 45;
#X msg 203 38 80;
#X connect 1 0 7 1;
#X connect 2 0 6 1;
#X connect 3 0 7 0;
#X connect 4 0 6 0;
#X connect 5 0 1 0;
#X connect 5 0 2 0;
#X connect 5 0 8 0;
#X connect 6 0 15 0;
#X connect 7 0 14 0;
#X connect 8 0 9 0;
#X connect 9 0 3 0;
#X connect 9 0 4 0;
#X connect 10 0 11 0;
#X connect 11 0 20 2;
#X connect 12 0 27 0;
#X connect 12 0 19 0;
#X connect 12 0 23 0;
#X connect 12 0 26 0;
#X connect 13 0 4 1;
#X connect 13 0 3 1;
#X connect 13 0 20 0;
#X connect 13 0 20 1;
#X connect 16 0 17 0;
#X connect 17 0 18 0;
#X connect 18 0 5 0;
#X connect 19 0 16 0;
#X connect 20 0 1 1;
#X connect 20 1 2 1;
#X connect 21 0 22 0;
#X connect 22 0 20 3;
#X connect 23 0 21 0;
#X connect 24 0 25 0;
#X connect 25 0 20 4;
#X connect 26 0 24 0;
#X connect 27 0 10 0;
#X coords 0 -1 1 1 200 160 2 0 0;
