#N canvas 755 324 239 224 10;
#X obj 100 83 delread~ \$0-med;
#X obj 24 190 delwrite~ \$0-med 100;
#X obj 12 35 inlet~;
#X obj 29 152 +~;
#X obj 67 116 *~;
#X obj 72 36 inlet;
#X obj 119 36 inlet;
#X obj 168 190 outlet~;
#X text 9 8 audio;
#X text 71 9 delay;
#X text 120 8 gain;
#X connect 0 0 4 1;
#X connect 0 0 7 0;
#X connect 2 0 3 0;
#X connect 3 0 1 0;
#X connect 4 0 3 1;
#X connect 5 0 0 0;
#X connect 6 0 4 0;
