#N canvas 956 88 518 562 10;
#X obj 31 -1 inlet~;
#X obj 38 151 allpass100ms;
#X floatatom 134 78 5 -100 0 0 apgain - -;
#X floatatom 72 126 5 0 0 0 ap1delay - -;
#X obj 40 226 allpass100ms;
#X floatatom 73 202 5 0 0 0 ap2delay - -;
#X obj 40 482 comb100ms;
#X obj 40 508 outlet~;
#X obj 138 481 comb100ms;
#X obj 138 507 outlet~;
#X obj 229 481 comb100ms;
#X obj 229 507 outlet~;
#X obj 329 481 comb100ms;
#X obj 329 506 outlet~;
#X floatatom 65 294 5 0 0 0 cm1delay - -;
#X floatatom 163 294 5 0 0 0 cm2delay - -;
#X floatatom 254 293 5 0 0 0 cm3delay - -;
#X floatatom 358 294 5 0 0 0 cm4delay - -;
#X msg 73 180 5;
#X msg 71 101 1.7;
#X msg 64 270 29.7;
#X msg 163 271 37.1;
#X msg 254 272 41.1;
#X msg 357 273 43.7;
#X obj 380 458 dbtorms;
#X obj 134 122 dbtorms;
#X text 283 244 -60*looptime/reverbtime=gain;
#X obj 378 322 * -60;
#X floatatom 380 343 5 0 0 0 - - -;
#X obj 380 394 /;
#X floatatom 273 124 5 0 0 0 reverbtime-ms - -;
#X obj 369 370 t b f;
#X obj 379 416 + 100;
#X floatatom 380 438 5 0 0 0 - - -;
#X obj 279 459 dbtorms;
#X obj 273 321 * -60;
#X floatatom 275 344 5 0 0 0 - - -;
#X obj 278 395 /;
#X obj 268 371 t b f;
#X obj 278 416 + 100;
#X floatatom 279 438 5 0 0 0 - - -;
#X obj 189 458 dbtorms;
#X obj 187 318 * -60;
#X floatatom 188 342 5 0 0 0 - - -;
#X obj 187 391 /;
#X obj 176 367 t b f;
#X obj 187 412 + 100;
#X floatatom 188 435 5 0 0 0 - - -;
#X obj 91 458 dbtorms;
#X obj 90 318 * -60;
#X floatatom 92 339 5 0 0 0 - - -;
#X obj 92 388 /;
#X obj 83 365 t b f;
#X obj 91 412 + 100;
#X floatatom 91 436 5 0 0 0 - - -;
#X obj 134 100 + 100;
#X obj 115 -1 loadbang;
#X msg 133 55 -24;
#X obj 182 -1 inlet;
#X obj 277 60 t b b;
#X obj 250 -1 inlet;
#X msg 278 91 500;
#X connect 0 0 1 0;
#X connect 1 0 4 0;
#X connect 2 0 55 0;
#X connect 3 0 1 1;
#X connect 4 0 6 0;
#X connect 4 0 8 0;
#X connect 4 0 10 0;
#X connect 4 0 12 0;
#X connect 5 0 4 1;
#X connect 6 0 7 0;
#X connect 8 0 9 0;
#X connect 10 0 11 0;
#X connect 12 0 13 0;
#X connect 14 0 6 1;
#X connect 14 0 49 0;
#X connect 15 0 8 1;
#X connect 15 0 42 0;
#X connect 16 0 10 1;
#X connect 16 0 35 0;
#X connect 17 0 12 1;
#X connect 17 0 27 0;
#X connect 18 0 5 0;
#X connect 19 0 3 0;
#X connect 20 0 14 0;
#X connect 21 0 15 0;
#X connect 22 0 16 0;
#X connect 23 0 17 0;
#X connect 24 0 12 2;
#X connect 25 0 1 2;
#X connect 25 0 4 2;
#X connect 27 0 28 0;
#X connect 28 0 29 0;
#X connect 29 0 32 0;
#X connect 30 0 31 0;
#X connect 30 0 38 0;
#X connect 30 0 45 0;
#X connect 30 0 52 0;
#X connect 31 0 29 0;
#X connect 31 1 29 1;
#X connect 32 0 33 0;
#X connect 33 0 24 0;
#X connect 34 0 10 2;
#X connect 35 0 36 0;
#X connect 36 0 37 0;
#X connect 37 0 39 0;
#X connect 38 0 37 0;
#X connect 38 1 37 1;
#X connect 39 0 40 0;
#X connect 40 0 34 0;
#X connect 41 0 8 2;
#X connect 42 0 43 0;
#X connect 43 0 44 0;
#X connect 44 0 46 0;
#X connect 45 0 44 0;
#X connect 45 1 44 1;
#X connect 46 0 47 0;
#X connect 47 0 41 0;
#X connect 48 0 6 2;
#X connect 49 0 50 0;
#X connect 50 0 51 0;
#X connect 51 0 53 0;
#X connect 52 0 51 0;
#X connect 52 1 51 1;
#X connect 53 0 54 0;
#X connect 54 0 48 0;
#X connect 55 0 25 0;
#X connect 56 0 19 0;
#X connect 56 0 18 0;
#X connect 56 0 57 0;
#X connect 56 0 59 0;
#X connect 57 0 2 0;
#X connect 58 0 30 0;
#X connect 59 0 61 0;
#X connect 59 1 23 0;
#X connect 59 1 22 0;
#X connect 59 1 21 0;
#X connect 59 1 20 0;
#X connect 60 0 2 0;
#X connect 61 0 30 0;
#X coords 0 0 1 1 140 100 0;
