#N canvas 1168 135 459 512 10;
#X obj 267 236 +~;
#X obj 114 294 +~;
#X obj 269 298 +~;
#X obj 348 236 -~;
#X obj 376 235 -~;
#X obj 353 265 +~;
#X obj 291 236 +~;
#X obj 275 266 +~;
#X obj 84 233 +~;
#X obj 172 233 -~;
#X obj 200 234 -~;
#X obj 186 264 +~;
#X obj 113 232 +~;
#X obj 92 263 +~;
#X floatatom 297 91 5 1 5000 0 reverbtimems - -;
#X floatatom 286 123 5 -100 0 0 allpassgain - -;
#X obj 100 409 *~;
#X obj 253 412 *~;
#X obj 63 410 *~;
#X obj 214 412 *~;
#X floatatom 169 339 5 0 1 0 drywet - -;
#X obj 232 436 +~;
#X obj 77 438 +~;
#X obj 170 362 - 1;
#X obj 169 383 * -1;
#X obj 142 232 +~;
#X obj 230 234 -~;
#X obj 317 236 +~;
#X obj 401 236 -~;
#X obj 281 189 moorerreverb;
#X obj 65 146 inlet~;
#X obj 227 149 inlet~;
#X obj 74 486 outlet~;
#X obj 230 479 outlet~;
#X obj 2 1 cnv 15 198 118 empty empty moorer_reverb 20 12 0 14 -233017
-66577 0;
#X obj 10 31 hsl 128 15 100 5000 1 0 empty empty time_ms -2 -8 0 10
-262144 -1 -1 9075 1;
#X obj 10 61 hsl 128 15 0 100 0 0 empty empty mix -2 -8 0 10 -262144
-1 -1 0 1;
#X obj 11 91 hsl 128 15 -24 -2 0 0 empty empty ap_gain -2 -8 0 10 -262144
-1 -1 12700 1;
#X floatatom 153 30 5 0 0 0 - - -;
#X floatatom 152 60 5 0 0 0 - - -;
#X floatatom 151 90 5 0 0 0 - - -;
#X obj 292 26 loadbang;
#X msg 293 53 1000;
#X msg 336 54 50;
#X msg 372 56 -6;
#X obj 114 188 moorerreverb;
#X obj 153 145 * 0.01;
#X obj 270 323 *~ 0.16;
#X obj 113 317 *~ 0.16;
#X connect 0 0 7 0;
#X connect 1 0 48 0;
#X connect 2 0 47 0;
#X connect 3 0 5 0;
#X connect 4 0 5 1;
#X connect 5 0 1 1;
#X connect 6 0 7 1;
#X connect 7 0 2 1;
#X connect 8 0 13 0;
#X connect 9 0 11 0;
#X connect 10 0 11 1;
#X connect 11 0 2 0;
#X connect 12 0 13 1;
#X connect 13 0 1 0;
#X connect 14 0 29 1;
#X connect 14 0 45 1;
#X connect 15 0 29 2;
#X connect 15 0 45 2;
#X connect 16 0 22 1;
#X connect 17 0 21 1;
#X connect 18 0 22 0;
#X connect 19 0 21 0;
#X connect 20 0 17 0;
#X connect 20 0 16 0;
#X connect 20 0 23 0;
#X connect 21 0 33 0;
#X connect 22 0 32 0;
#X connect 23 0 24 0;
#X connect 24 0 18 1;
#X connect 24 0 19 1;
#X connect 25 0 13 1;
#X connect 26 0 11 1;
#X connect 27 0 7 1;
#X connect 28 0 5 1;
#X connect 29 0 0 0;
#X connect 29 0 3 0;
#X connect 29 1 3 1;
#X connect 29 1 0 1;
#X connect 29 2 4 0;
#X connect 29 2 6 0;
#X connect 29 3 4 1;
#X connect 29 3 6 1;
#X connect 29 4 27 0;
#X connect 29 4 28 0;
#X connect 29 5 27 1;
#X connect 29 5 28 1;
#X connect 30 0 45 0;
#X connect 30 0 18 0;
#X connect 31 0 29 0;
#X connect 31 0 19 0;
#X connect 35 0 38 0;
#X connect 36 0 39 0;
#X connect 37 0 40 0;
#X connect 38 0 14 0;
#X connect 39 0 46 0;
#X connect 40 0 15 0;
#X connect 41 0 42 0;
#X connect 41 0 43 0;
#X connect 41 0 44 0;
#X connect 42 0 35 0;
#X connect 43 0 36 0;
#X connect 44 0 37 0;
#X connect 45 0 8 0;
#X connect 45 0 9 0;
#X connect 45 1 9 1;
#X connect 45 1 8 1;
#X connect 45 2 10 0;
#X connect 45 2 12 0;
#X connect 45 3 10 1;
#X connect 45 3 12 1;
#X connect 45 4 25 0;
#X connect 45 4 26 0;
#X connect 45 5 25 1;
#X connect 45 5 26 1;
#X connect 46 0 20 0;
#X connect 47 0 17 1;
#X connect 48 0 16 1;
#X coords 0 -1 1 1 200 120 1 0 0;
