#N canvas 956 88 827 542 10;
#X obj 31 -1 inlet~;
#X floatatom 134 78 5 -100 0 0 apgain - -;
#X obj 53 156 allpass100ms;
#X floatatom 86 132 5 0 0 0 ap2delay - -;
#X obj 40 508 outlet~;
#X floatatom 63 294 5 0 0 0 cm1delay - -;
#X obj 134 122 dbtorms;
#X text 283 244 -60*looptime/reverbtime=gain;
#X floatatom 273 124 5 0 0 0 reverbtime-ms - -;
#X obj 82 458 dbtorms;
#X obj 81 318 * -60;
#X floatatom 83 339 5 0 0 0 - - -;
#X obj 83 388 /;
#X obj 74 365 t b f;
#X obj 82 412 + 100;
#X floatatom 82 436 5 0 0 0 - - -;
#X obj 134 100 + 100;
#X obj 115 -1 loadbang;
#X obj 182 -1 inlet;
#X obj 277 60 t b b;
#X obj 250 -1 inlet;
#X msg 278 91 500;
#X msg 86 110 6;
#X msg 62 270 50;
#X obj 40 482 lpcomb100ms;
#X obj 171 507 outlet~;
#X floatatom 194 293 5 0 0 0 cm1delay - -;
#X obj 213 457 dbtorms;
#X obj 212 317 * -60;
#X floatatom 214 338 5 0 0 0 - - -;
#X obj 214 387 /;
#X obj 205 364 t b f;
#X obj 213 411 + 100;
#X floatatom 213 435 5 0 0 0 - - -;
#X obj 301 507 outlet~;
#X floatatom 324 293 5 0 0 0 cm1delay - -;
#X obj 343 457 dbtorms;
#X obj 342 317 * -60;
#X floatatom 344 338 5 0 0 0 - - -;
#X obj 344 387 /;
#X obj 335 364 t b f;
#X obj 343 411 + 100;
#X floatatom 343 435 5 0 0 0 - - -;
#X obj 433 506 outlet~;
#X floatatom 456 292 5 0 0 0 cm1delay - -;
#X obj 475 456 dbtorms;
#X obj 474 316 * -60;
#X floatatom 476 337 5 0 0 0 - - -;
#X obj 476 386 /;
#X obj 467 363 t b f;
#X obj 475 410 + 100;
#X floatatom 475 434 5 0 0 0 - - -;
#X obj 566 507 outlet~;
#X floatatom 589 293 5 0 0 0 cm1delay - -;
#X obj 608 457 dbtorms;
#X obj 607 317 * -60;
#X floatatom 609 338 5 0 0 0 - - -;
#X obj 609 387 /;
#X obj 600 364 t b f;
#X obj 608 411 + 100;
#X floatatom 608 435 5 0 0 0 - - -;
#X obj 700 506 outlet~;
#X floatatom 723 292 5 0 0 0 cm1delay - -;
#X obj 742 456 dbtorms;
#X obj 741 316 * -60;
#X floatatom 743 337 5 0 0 0 - - -;
#X obj 743 386 /;
#X obj 734 363 t b f;
#X obj 742 410 + 100;
#X floatatom 742 434 5 0 0 0 - - -;
#X msg 193 269 56;
#X msg 323 269 61;
#X msg 455 268 68;
#X msg 588 269 72;
#X msg 722 268 78;
#X obj 285 21 bng 15 250 50 0 empty empty empty 17 7 0 10 -262144 -1
-1;
#X floatatom 140 157 5 0 0 0 - - -;
#X msg 133 55 -3;
#X floatatom 126 482 5 0 0 0 - - -;
#X floatatom 252 483 5 0 0 0 - - -;
#X floatatom 379 481 5 0 0 0 - - -;
#X floatatom 513 481 5 0 0 0 - - -;
#X floatatom 647 482 5 0 0 0 - - -;
#X floatatom 781 480 5 0 0 0 - - -;
#X obj 171 481 lpcomb100ms;
#X obj 301 481 lpcomb100ms;
#X obj 433 480 lpcomb100ms;
#X obj 566 481 lpcomb100ms;
#X obj 700 480 lpcomb100ms;
#X obj 346 191 t b b b b b b;
#X connect 0 0 2 0;
#X connect 1 0 16 0;
#X connect 2 0 24 0;
#X connect 2 0 84 0;
#X connect 2 0 85 0;
#X connect 2 0 86 0;
#X connect 2 0 87 0;
#X connect 2 0 88 0;
#X connect 3 0 2 1;
#X connect 5 0 10 0;
#X connect 5 0 24 1;
#X connect 6 0 2 2;
#X connect 6 0 76 0;
#X connect 8 0 13 0;
#X connect 8 0 31 0;
#X connect 8 0 40 0;
#X connect 8 0 49 0;
#X connect 8 0 58 0;
#X connect 8 0 67 0;
#X connect 9 0 24 2;
#X connect 9 0 78 0;
#X connect 10 0 11 0;
#X connect 11 0 12 0;
#X connect 12 0 14 0;
#X connect 13 0 12 0;
#X connect 13 1 12 1;
#X connect 14 0 15 0;
#X connect 15 0 9 0;
#X connect 16 0 6 0;
#X connect 17 0 22 0;
#X connect 17 0 77 0;
#X connect 17 0 19 0;
#X connect 18 0 8 0;
#X connect 19 0 21 0;
#X connect 19 1 89 0;
#X connect 20 0 1 0;
#X connect 21 0 8 0;
#X connect 22 0 3 0;
#X connect 23 0 5 0;
#X connect 24 0 4 0;
#X connect 26 0 28 0;
#X connect 26 0 84 1;
#X connect 27 0 79 0;
#X connect 27 0 84 2;
#X connect 28 0 29 0;
#X connect 29 0 30 0;
#X connect 30 0 32 0;
#X connect 31 0 30 0;
#X connect 31 1 30 1;
#X connect 32 0 33 0;
#X connect 33 0 27 0;
#X connect 35 0 37 0;
#X connect 35 0 85 1;
#X connect 36 0 80 0;
#X connect 36 0 85 2;
#X connect 37 0 38 0;
#X connect 38 0 39 0;
#X connect 39 0 41 0;
#X connect 40 0 39 0;
#X connect 40 1 39 1;
#X connect 41 0 42 0;
#X connect 42 0 36 0;
#X connect 44 0 46 0;
#X connect 44 0 86 1;
#X connect 45 0 81 0;
#X connect 45 0 86 2;
#X connect 46 0 47 0;
#X connect 47 0 48 0;
#X connect 48 0 50 0;
#X connect 49 0 48 0;
#X connect 49 1 48 1;
#X connect 50 0 51 0;
#X connect 51 0 45 0;
#X connect 53 0 55 0;
#X connect 53 0 87 1;
#X connect 54 0 82 0;
#X connect 54 0 87 2;
#X connect 55 0 56 0;
#X connect 56 0 57 0;
#X connect 57 0 59 0;
#X connect 58 0 57 0;
#X connect 58 1 57 1;
#X connect 59 0 60 0;
#X connect 60 0 54 0;
#X connect 62 0 64 0;
#X connect 62 0 88 1;
#X connect 63 0 83 0;
#X connect 63 0 88 2;
#X connect 64 0 65 0;
#X connect 65 0 66 0;
#X connect 66 0 68 0;
#X connect 67 0 66 0;
#X connect 67 1 66 1;
#X connect 68 0 69 0;
#X connect 69 0 63 0;
#X connect 70 0 26 0;
#X connect 71 0 35 0;
#X connect 72 0 44 0;
#X connect 73 0 53 0;
#X connect 74 0 62 0;
#X connect 75 0 19 0;
#X connect 77 0 1 0;
#X connect 84 0 25 0;
#X connect 85 0 34 0;
#X connect 86 0 43 0;
#X connect 87 0 52 0;
#X connect 88 0 61 0;
#X connect 89 0 23 0;
#X connect 89 1 70 0;
#X connect 89 2 71 0;
#X connect 89 3 72 0;
#X connect 89 4 73 0;
#X connect 89 5 74 0;
#X coords 0 0 1 1 140 100 0;
