#N canvas 1737 115 1440 817 12;
#X declare -lib Gem;
#X declare -path else;
#X obj 69 -44 declare -lib Gem;
#X obj 149 65 gemhead;
#X floatatom 165 225 5 0 0 0 - - - 0;
#X floatatom 210 224 5 0 0 0 - - - 0;
#X floatatom 257 225 5 0 0 0 - - - 0;
#X msg 294 -28 create;
#X obj 292 10 gemwin;
#X msg 353 -27 1;
#X msg 388 -25 0;
#X obj 147 139 pix_multiimage;
#X floatatom 241 110 5 0 0 0 - - - 0;
#X obj 142 352 pix_texture;
#X obj 145 263 rotateXYZ;
#X floatatom 405 471 5 0 0 0 - - - 0;
#X obj 407 349 bng 19 250 50 0 empty empty empty 0 -10 0 12 #fcfcfc #000000 #000000;
#X obj 405 446 / 100;
#X floatatom 494 471 5 0 0 0 - - - 0;
#X obj 494 447 / 100;
#X floatatom 318 471 5 0 0 0 - - - 0;
#X obj 319 445 / 100;
#X obj 404 388 metro 100 10 msec;
#X msg 499 332 tempo \$1 msec;
#X obj 467 295 hsl 162 19 0 127 0 0 empty empty empty -2 -10 0 12 #fcfcfc #000000 #000000 0 1;
#X obj 312 614 s x;
#X obj 403 612 s y;
#X obj 493 618 s z;
#X obj 315 529 *;
#X obj 165 193 r x;
#X obj 405 528 *;
#X obj 210 191 r y;
#X obj 257 193 r z;
#X obj 491 525 *;
#X obj 313 589 line 0 1000;
#X msg 313 560 \$1 1000;
#X obj 405 586 line 0 1000;
#X msg 405 558 \$1 1000;
#X obj 498 587 line 0 1000;
#X msg 498 558 \$1 1000;
#X obj 474 -10 netreceive -u -b;
#X obj 476 19 oscparse;
#X obj 474 176 print;
#X obj 476 52 list trim;
#X obj 477 84 route blink;
#X obj 478 115 +;
#X obj 530 117 int;
#X msg 211 66 open ../images/planets*.jpg 12;
#X obj 475 148 mod 13;
#X obj 607 125 route respiration;
#X obj 385 -80 loadbang;
#X obj 733 156 route heart;
#X obj 818 196 route skin;
#X obj 732 225 s heart;
#X obj 374 252 loadbang;
#X obj 606 180 s respiration;
#X obj 818 243 s skin;
#X obj 188 20 loadbang;
#X obj 278 350 r respiration;
#X obj 140 649 sphere;
#X obj 318 421 random 10;
#X obj 405 421 random 10;
#X obj 494 422 random 10;
#X obj 209 574 r heart;
#X floatatom 161 615 5 0 0 0 - - - 0;
#X obj 21 158 translateXYZ;
#X obj 138 544 colorRGB 1 1 1 1;
#X floatatom 160 430 5 0 0 0 - - - 0;
#X obj 159 402 r skin;
#X floatatom 276 375 5 0 0 0 - - - 0;
#X obj 187 476 *;
#X obj 267 428 * 1;
#X obj 70 -71 declare -path else;
#X obj 215 608 * 3;
#X obj 463 1240 dattorroplate;
#X obj 458 1150 hip~ 3;
#X obj 458 1172 clip~ -1 1;
#X obj 193 1208 dac~ 1 2;
#X obj 640 869 loadbang;
#X obj 640 911 array set \$0-scale;
#X obj 640 932 array define \$0-scale;
#X obj 458 1063 /~ 2;
#X obj 458 1193 *~ 1;
#X obj 458 1128 *~ 0.9;
#X obj 772 671 vsl 17 127 1 127 0 1 empty empty VELOCITY 0 -9 0 10 #fcfcfc #000000 #000000 3600 1;
#X obj 772 812 nbx 3 17 1 127 0 0 empty empty empty 0 -8 0 10 #fcfcfc #000000 #000000 0 256;
#X obj 427 780 unpack f f;
#X obj 772 842 v \$0-vel;
#X obj 605 786 v \$0-vel;
#X obj 605 765 sel 127;
#X obj 427 864 tabread \$0-scale;
#X obj 427 885 +;
#X obj 568 821 div 5;
#X obj 568 842 * 12;
#X obj 427 822 t f f;
#X obj 560 911 pack f f f;
#X obj 560 932 s \$0-poly;
#X obj 458 958 r \$0-poly;
#X obj 458 979 route 1;
#X obj 427 801 + 5;
#X obj 560 864 notein;
#X obj 538 1021 mtof;
#X obj 538 1063 /~ 2;
#X obj 538 958 r \$0-poly;
#X obj 538 1000 unpack f f;
#X obj 538 979 route 2;
#X obj 618 1021 mtof;
#X obj 618 1063 /~ 2;
#X obj 618 958 r \$0-poly;
#X obj 618 1000 unpack f f;
#X obj 698 1021 mtof;
#X obj 698 1063 /~ 2;
#X obj 698 958 r \$0-poly;
#X obj 698 1000 unpack f f;
#X obj 618 979 route 3;
#X obj 698 979 route 4;
#X obj 778 1021 mtof;
#X obj 778 1063 /~ 2;
#X obj 778 958 r \$0-poly;
#X obj 778 1000 unpack f f;
#X obj 865 1021 mtof;
#X obj 865 1063 /~ 2;
#X obj 865 958 r \$0-poly;
#X obj 866 1000 unpack f f;
#X obj 778 979 route 5;
#X obj 865 979 route 6;
#X obj 560 890 poly 6 1;
#X obj 602 633 tgl 17 0 empty empty PLAY_SCALE 20 8 0 10 #fcfcfc #000000 #000000 0 1;
#X msg 600 737 \$1 127 \, \$1 0;
#X obj 599 687 random 15;
#X obj 458 1021 mtof;
#X obj 458 1000 unpack f f;
#X obj 458 1084 throw~ \$0-M;
#X obj 538 1084 throw~ \$0-M;
#X obj 618 1084 throw~ \$0-M;
#X obj 698 1084 throw~ \$0-M;
#X obj 778 1084 throw~ \$0-M;
#X obj 865 1084 throw~ \$0-M;
#X obj 458 1107 catch~ \$0-M;
#X obj 698 1041 chimes~;
#X obj 427 906 + 24;
#X obj 600 657 metro 2000;
#X obj 865 1042 pd-mkmr-master/instruments/chimes~;
#X obj 778 1042 chimes~;
#X obj 618 1041 chimes~;
#X obj 538 1042 chimes~;
#X obj 458 1042 chimes~;
#X obj 594 1153 loadbang;
#X obj 427 843 % 10;
#X obj 189 965 resonant~;
#X obj 132 735 vsl 19 162 20 1500 0 0 empty empty empty 0 -9 0 12 #fcfcfc #000000 #000000 0 1;
#X obj 186 893 loadbang;
#X msg 131 925 \$1;
#X obj 280 937 resonant~;
#X obj 297 704 vsl 19 162 20 1500 0 0 empty empty empty 0 -9 0 12 #fcfcfc #000000 #000000 0 1;
#X obj 337 862 loadbang;
#X msg 298 891 \$1;
#X obj 844 1169 lorenz, f 23;
#X msg 844 1135 start;
#X obj 843 1109 loadbang;
#X floatatom 743 1201 5 0 0 0 - - - 0;
#X floatatom 937 1116 5 0 0 0 - - - 0;
#X msg 937 1140 speed \$1;
#X msg 639 890 0 2 5 7 9 10 14 17 19;
#X msg 540 1204 100;
#X floatatom 786 1199 5 0 0 0 - - - 0;
#X floatatom 827 1200 5 0 0 0 - - - 0;
#X floatatom 872 1200 5 0 0 0 - - - 0;
#X floatatom 915 1201 5 0 0 0 - - - 0;
#X floatatom 960 1202 5 0 0 0 - - - 0;
#X floatatom 1004 1202 5 0 0 0 - - - 0;
#X floatatom 1051 1203 5 0 0 0 - - - 0;
#X obj 746 1223 s x1;
#X obj 789 1224 s x2;
#X obj 830 1225 s x3;
#X msg 767 1131 reset;
#X obj 872 1227 s x4;
#X obj 913 1228 s x5;
#X obj 959 1228 s x6;
#X obj 1006 1230 s x7;
#X obj 1053 1229 s x8;
#X obj 365 674 r x3;
#X obj 365 758 *;
#X floatatom 349 823 5 0 0 0 - - - 0;
#X obj 94 614 r x2;
#X obj 79 670 *;
#X obj 798 632 random 127;
#X obj 600 602 loadbang;
#X obj 764 567 + 500;
#X obj 765 538 random 7500;
#X msg 586 1202 0.01;
#X msg 622 1203 0.01;
#X msg 663 1202 0.99;
#X obj 97 1053 *~ 50;
#X obj 235 1096 *~ 50;
#X obj 600 709 + 1;
#X msg 186 921 2;
#X msg 337 894 2;
#X obj 383 725 r x1;
#X obj 365 702 * 1200;
#X msg 984 1094 1200;
#X obj 703 1131 delay 50;
#X floatatom 980 298 6 0 0 0 - - - 0;
#X floatatom 1070 327 7 0 0 0 - - - 0;
#X floatatom 1167 366 7 0 0 0 - - - 0;
#X floatatom 1249 406 5 0 0 0 - - - 0;
#X obj 973 342 s delta;
#X obj 1066 368 s theta;
#X obj 1163 398 s alpha;
#X obj 1248 441 s beta;
#X msg 486 259 80;
#X msg 474 -41 listen 12345;
#X obj 64 702 + 100;
#X obj 354 785 + 100;
#X obj 50 641 * 1200;
#X obj 47 601 r x5;
#X obj 911 218 list split 3;
#X obj 977 257 list split 1;
#X obj 1069 290 list split 1;
#X obj 1169 331 list split 1;
#X obj 1250 377 list split 1;
#X floatatom 1319 446 5 0 0 0 - - - 0;
#X obj 1320 417 list split 1;
#X obj 1318 481 s gamma;
#X obj 894 403 t b f;
#X obj 933 446 expr if ($f2 >= 1 \, 1 \, 0);
#X floatatom 933 492 5 0 0 0 - - - 0;
#X obj 937 544 +;
#X obj 989 546 int;
#X obj 934 577 mod 13;
#X floatatom 932 611 5 0 0 0 - - - 0;
#X obj 1035 496 sel 1 0;
#X obj 1052 573 t b b;
#X msg 1123 575 1;
#X obj 1073 647 spigot 1;
#X msg 1051 598 0;
#X floatatom 1073 684 5 0 0 0 - - - 0;
#X obj 1166 518 bng 19 250 50 0 empty empty empty 0 -10 0 12 #fcfcfc #000000 #000000;
#X connect 1 0 9 0;
#X connect 2 0 12 1;
#X connect 3 0 12 2;
#X connect 4 0 12 3;
#X connect 5 0 6 0;
#X connect 7 0 6 0;
#X connect 8 0 6 0;
#X connect 9 0 12 0;
#X connect 10 0 9 1;
#X connect 11 0 64 0;
#X connect 12 0 11 0;
#X connect 13 0 28 1;
#X connect 14 0 20 0;
#X connect 15 0 13 0;
#X connect 16 0 31 1;
#X connect 17 0 16 0;
#X connect 18 0 26 0;
#X connect 19 0 18 0;
#X connect 20 0 58 0;
#X connect 20 0 59 0;
#X connect 20 0 60 0;
#X connect 21 0 20 0;
#X connect 22 0 21 0;
#X connect 22 0 33 0;
#X connect 22 0 35 0;
#X connect 22 0 37 0;
#X connect 26 0 33 0;
#X connect 27 0 2 0;
#X connect 28 0 35 0;
#X connect 29 0 3 0;
#X connect 30 0 4 0;
#X connect 31 0 37 0;
#X connect 32 0 23 0;
#X connect 33 0 32 0;
#X connect 34 0 24 0;
#X connect 35 0 34 0;
#X connect 36 0 25 0;
#X connect 37 0 36 0;
#X connect 38 0 39 0;
#X connect 39 0 41 0;
#X connect 41 0 42 0;
#X connect 42 0 43 0;
#X connect 42 1 47 0;
#X connect 43 0 44 0;
#X connect 44 0 43 1;
#X connect 44 0 46 0;
#X connect 45 0 9 0;
#X connect 46 0 40 0;
#X connect 46 0 10 0;
#X connect 47 0 53 0;
#X connect 47 1 49 0;
#X connect 48 0 209 0;
#X connect 48 0 5 0;
#X connect 48 0 7 0;
#X connect 49 0 51 0;
#X connect 49 1 50 0;
#X connect 50 0 54 0;
#X connect 50 1 214 0;
#X connect 52 0 14 0;
#X connect 52 0 208 0;
#X connect 55 0 45 0;
#X connect 55 0 1 0;
#X connect 56 0 67 0;
#X connect 58 0 19 0;
#X connect 58 0 28 0;
#X connect 59 0 15 0;
#X connect 59 0 31 0;
#X connect 60 0 17 0;
#X connect 60 0 26 1;
#X connect 61 0 71 0;
#X connect 62 0 57 1;
#X connect 64 0 57 0;
#X connect 65 0 68 1;
#X connect 66 0 65 0;
#X connect 67 0 68 0;
#X connect 67 0 69 0;
#X connect 68 0 64 1;
#X connect 69 0 64 2;
#X connect 69 0 64 3;
#X connect 71 0 62 0;
#X connect 72 0 147 0;
#X connect 72 1 151 0;
#X connect 73 0 74 0;
#X connect 74 0 80 0;
#X connect 76 0 161 0;
#X connect 79 0 130 0;
#X connect 80 0 72 0;
#X connect 81 0 73 0;
#X connect 82 0 83 0;
#X connect 83 0 85 0;
#X connect 84 0 97 0;
#X connect 84 1 87 0;
#X connect 86 0 124 1;
#X connect 87 0 86 0;
#X connect 87 1 124 1;
#X connect 88 0 89 0;
#X connect 89 0 138 0;
#X connect 90 0 91 0;
#X connect 91 0 89 1;
#X connect 92 0 146 0;
#X connect 92 1 90 0;
#X connect 93 0 94 0;
#X connect 95 0 96 0;
#X connect 96 0 129 0;
#X connect 97 0 92 0;
#X connect 98 0 124 0;
#X connect 98 1 124 1;
#X connect 99 0 143 0;
#X connect 100 0 131 0;
#X connect 101 0 103 0;
#X connect 102 0 99 0;
#X connect 102 1 143 1;
#X connect 103 0 102 0;
#X connect 104 0 142 0;
#X connect 105 0 132 0;
#X connect 106 0 112 0;
#X connect 107 0 104 0;
#X connect 107 1 142 1;
#X connect 108 0 137 0;
#X connect 109 0 133 0;
#X connect 110 0 113 0;
#X connect 111 0 108 0;
#X connect 111 1 137 1;
#X connect 112 0 107 0;
#X connect 113 0 111 0;
#X connect 114 0 141 0;
#X connect 115 0 134 0;
#X connect 116 0 122 0;
#X connect 117 0 114 0;
#X connect 117 1 141 1;
#X connect 118 0 140 0;
#X connect 119 0 135 0;
#X connect 120 0 123 0;
#X connect 121 0 118 0;
#X connect 121 1 140 1;
#X connect 122 0 117 0;
#X connect 123 0 121 0;
#X connect 124 0 93 0;
#X connect 124 1 93 1;
#X connect 124 2 93 2;
#X connect 125 0 139 0;
#X connect 126 0 84 0;
#X connect 127 0 193 0;
#X connect 128 0 144 0;
#X connect 129 0 128 0;
#X connect 129 1 144 1;
#X connect 136 0 81 0;
#X connect 137 0 109 0;
#X connect 138 0 124 0;
#X connect 139 0 127 0;
#X connect 139 0 184 0;
#X connect 139 0 187 0;
#X connect 140 0 119 0;
#X connect 141 0 115 0;
#X connect 142 0 105 0;
#X connect 143 0 100 0;
#X connect 144 0 79 0;
#X connect 145 0 162 0;
#X connect 145 0 188 0;
#X connect 145 0 189 0;
#X connect 145 0 190 0;
#X connect 146 0 88 0;
#X connect 147 0 191 0;
#X connect 148 0 150 0;
#X connect 149 0 194 0;
#X connect 150 0 147 1;
#X connect 151 0 192 0;
#X connect 152 0 154 0;
#X connect 153 0 195 0;
#X connect 154 0 151 1;
#X connect 155 0 158 0;
#X connect 155 1 163 0;
#X connect 155 2 164 0;
#X connect 155 3 165 0;
#X connect 155 4 166 0;
#X connect 155 5 167 0;
#X connect 155 6 168 0;
#X connect 155 7 169 0;
#X connect 156 0 155 0;
#X connect 157 0 156 0;
#X connect 157 0 198 0;
#X connect 158 0 170 0;
#X connect 159 0 160 0;
#X connect 160 0 155 0;
#X connect 161 0 77 0;
#X connect 162 0 72 1;
#X connect 163 0 171 0;
#X connect 164 0 172 0;
#X connect 165 0 174 0;
#X connect 166 0 175 0;
#X connect 167 0 176 0;
#X connect 168 0 177 0;
#X connect 169 0 178 0;
#X connect 173 0 155 0;
#X connect 179 0 197 0;
#X connect 180 0 211 0;
#X connect 181 0 152 0;
#X connect 182 0 183 1;
#X connect 183 0 210 0;
#X connect 184 0 82 0;
#X connect 185 0 125 0;
#X connect 186 0 139 1;
#X connect 187 0 186 0;
#X connect 188 0 72 2;
#X connect 189 0 72 3;
#X connect 190 0 72 4;
#X connect 191 0 75 0;
#X connect 192 0 75 1;
#X connect 193 0 126 0;
#X connect 194 0 147 2;
#X connect 195 0 151 2;
#X connect 196 0 180 1;
#X connect 197 0 180 0;
#X connect 198 0 159 0;
#X connect 200 0 204 0;
#X connect 200 0 222 0;
#X connect 201 0 205 0;
#X connect 202 0 206 0;
#X connect 203 0 207 0;
#X connect 208 0 22 0;
#X connect 209 0 38 0;
#X connect 210 0 148 0;
#X connect 211 0 181 0;
#X connect 212 0 183 0;
#X connect 213 0 212 0;
#X connect 214 1 215 0;
#X connect 215 0 200 0;
#X connect 215 1 216 0;
#X connect 216 0 201 0;
#X connect 216 1 217 0;
#X connect 217 0 202 0;
#X connect 217 1 218 0;
#X connect 218 0 203 0;
#X connect 218 1 220 0;
#X connect 219 0 221 0;
#X connect 220 0 219 0;
#X connect 222 0 223 0;
#X connect 222 1 223 1;
#X connect 223 0 224 0;
#X connect 224 0 229 0;
#X connect 225 0 226 0;
#X connect 226 0 225 1;
#X connect 226 0 227 0;
#X connect 227 0 228 0;
#X connect 229 0 230 0;
#X connect 229 0 225 0;
#X connect 229 1 231 0;
#X connect 230 0 233 0;
#X connect 230 1 232 0;
#X connect 231 0 232 1;
#X connect 232 0 234 0;
#X connect 233 0 232 1;
