#N canvas 44 82 800 630 12;
#X declare -lib Gem;
#X obj 131 -3 declare -lib Gem;
#X obj 149 65 gemhead;
#X floatatom 165 225 5 0 0 0 - - - 0;
#X floatatom 210 224 5 0 0 0 - - - 0;
#X floatatom 257 225 5 0 0 0 - - - 0;
#X msg 274 -6 create;
#X obj 272 32 gemwin;
#X msg 333 -5 1;
#X msg 368 -3 0;
#X msg 211 66 open ../images/cat*.jpg 5;
#X obj 147 139 pix_multiimage;
#X floatatom 242 111 5 0 0 0 - - - 0;
#X obj 143 307 _pix2rectangle 3;
#X obj 142 352 pix_texture;
#X obj 143 401 cube;
#X obj 145 263 rotateXYZ;
#X floatatom 405 471 5 0 0 0 - - - 0;
#X obj 407 349 bng 19 250 50 0 empty empty empty 0 -10 0 12 #fcfcfc #000000 #000000;
#X obj 405 421 random 100;
#X obj 405 446 / 100;
#X floatatom 494 471 5 0 0 0 - - - 0;
#X obj 494 422 random 100;
#X obj 494 447 / 100;
#X floatatom 318 471 5 0 0 0 - - - 0;
#X obj 318 421 random 100;
#X obj 319 445 / 100;
#X obj 404 388 metro 100 10 msec;
#X msg 499 332 tempo \$1 msec;
#X obj 450 303 hsl 162 19 0 127 0 0 empty empty empty -2 -10 0 12 #fcfcfc #000000 #000000 0 1;
#X obj 312 614 s x;
#X obj 403 612 s y;
#X obj 493 618 s z;
#X obj 315 529 *;
#X obj 165 193 r x;
#X obj 405 528 *;
#X obj 210 191 r y;
#X obj 257 193 r z;
#X obj 491 525 *;
#X obj 313 589 line 0 1000;
#X msg 313 560 \$1 1000;
#X obj 405 586 line 0 1000;
#X msg 405 558 \$1 1000;
#X obj 498 587 line 0 1000;
#X msg 498 558 \$1 1000;
#X obj 474 -10 netreceive -u -b;
#X msg 474 -41 listen 5000;
#X obj 476 19 oscparse;
#X obj 474 176 print;
#X obj 476 52 list trim;
#X obj 477 84 route blink;
#X obj 475 148 mod 6;
#X obj 478 115 +;
#X obj 530 117 int;
#X connect 1 0 10 0;
#X connect 2 0 15 1;
#X connect 3 0 15 2;
#X connect 4 0 15 3;
#X connect 5 0 6 0;
#X connect 7 0 6 0;
#X connect 8 0 6 0;
#X connect 9 0 10 0;
#X connect 10 0 15 0;
#X connect 11 0 10 1;
#X connect 12 0 13 0;
#X connect 13 0 14 0;
#X connect 15 0 12 0;
#X connect 16 0 34 1;
#X connect 17 0 26 0;
#X connect 18 0 19 0;
#X connect 18 0 37 0;
#X connect 19 0 16 0;
#X connect 20 0 37 1;
#X connect 21 0 22 0;
#X connect 21 0 32 1;
#X connect 22 0 20 0;
#X connect 23 0 32 0;
#X connect 24 0 25 0;
#X connect 24 0 34 0;
#X connect 25 0 23 0;
#X connect 26 0 18 0;
#X connect 26 0 24 0;
#X connect 26 0 21 0;
#X connect 27 0 26 0;
#X connect 28 0 27 0;
#X connect 28 0 39 0;
#X connect 28 0 41 0;
#X connect 28 0 43 0;
#X connect 32 0 39 0;
#X connect 33 0 2 0;
#X connect 34 0 41 0;
#X connect 35 0 3 0;
#X connect 36 0 4 0;
#X connect 37 0 43 0;
#X connect 38 0 29 0;
#X connect 39 0 38 0;
#X connect 40 0 30 0;
#X connect 41 0 40 0;
#X connect 42 0 31 0;
#X connect 43 0 42 0;
#X connect 44 0 46 0;
#X connect 45 0 44 0;
#X connect 46 0 48 0;
#X connect 48 0 49 0;
#X connect 49 0 51 0;
#X connect 50 0 47 0;
#X connect 50 0 11 0;
#X connect 51 0 52 0;
#X connect 52 0 50 0;
#X connect 52 0 51 1;
