#N canvas 420 106 1020 639 12;
#X declare -lib Gem;
#X obj 73 -40 declare -lib Gem;
#X obj 149 65 gemhead;
#X floatatom 165 225 5 0 0 0 - - - 0;
#X floatatom 210 224 5 0 0 0 - - - 0;
#X floatatom 257 225 5 0 0 0 - - - 0;
#X msg 294 -28 create;
#X obj 292 10 gemwin;
#X msg 353 -27 1;
#X msg 388 -25 0;
#X obj 147 139 pix_multiimage;
#X floatatom 241 110 5 0 0 0 - - - 0;
#X obj 164 299 _pix2rectangle 3;
#X obj 142 352 pix_texture;
#X obj 145 263 rotateXYZ;
#X floatatom 405 471 5 0 0 0 - - - 0;
#X obj 407 349 bng 19 250 50 0 empty empty empty 0 -10 0 12 #fcfcfc #000000 #000000;
#X obj 405 446 / 100;
#X floatatom 494 471 5 0 0 0 - - - 0;
#X obj 494 447 / 100;
#X floatatom 318 471 5 0 0 0 - - - 0;
#X obj 319 445 / 100;
#X obj 404 388 metro 100 10 msec;
#X msg 499 332 tempo \$1 msec;
#X obj 449 299 hsl 162 19 0 127 0 0 empty empty empty -2 -10 0 12 #fcfcfc #000000 #000000 0 1;
#X obj 312 614 s x;
#X obj 403 612 s y;
#X obj 493 618 s z;
#X obj 315 529 *;
#X obj 165 193 r x;
#X obj 405 528 *;
#X obj 210 191 r y;
#X obj 257 193 r z;
#X obj 491 525 *;
#X obj 313 589 line 0 1000;
#X msg 313 560 \$1 1000;
#X obj 405 586 line 0 1000;
#X msg 405 558 \$1 1000;
#X obj 498 587 line 0 1000;
#X msg 498 558 \$1 1000;
#X obj 474 -10 netreceive -u -b;
#X msg 474 -41 listen 5000;
#X obj 476 19 oscparse;
#X obj 474 176 print;
#X obj 476 52 list trim;
#X obj 477 84 route blink;
#X obj 478 115 +;
#X obj 530 117 int;
#X msg 211 66 open ../images/planets*.jpg 12;
#X obj 475 148 mod 13;
#X obj 607 125 route respiration;
#X obj 385 -80 loadbang;
#X obj 733 156 route heart;
#X obj 818 196 route skin;
#X obj 732 225 s heart;
#X obj 374 252 loadbang;
#X obj 606 180 s respiration;
#X obj 818 243 s skin;
#X obj 188 20 loadbang;
#X obj 278 350 r respiration;
#X obj 140 622 sphere;
#X obj 318 421 random 10;
#X obj 405 421 random 10;
#X obj 494 422 random 10;
#X obj 159 567 r heart;
#X floatatom 160 593 5 0 0 0 - - - 0;
#X obj 21 158 translateXYZ;
#X obj 141 476 colorRGB 1 1 1 1;
#X floatatom 162 436 5 0 0 0 - - - 0;
#X obj 159 402 r skin;
#X floatatom 276 375 5 0 0 0 - - - 0;
#X obj 225 402 *;
#X obj 267 428 * 1;
#X connect 1 0 9 0;
#X connect 2 0 13 1;
#X connect 3 0 13 2;
#X connect 4 0 13 3;
#X connect 5 0 6 0;
#X connect 7 0 6 0;
#X connect 8 0 6 0;
#X connect 9 0 13 0;
#X connect 10 0 9 1;
#X connect 12 0 66 0;
#X connect 13 0 12 0;
#X connect 14 0 29 1;
#X connect 15 0 21 0;
#X connect 16 0 14 0;
#X connect 17 0 32 1;
#X connect 18 0 17 0;
#X connect 19 0 27 0;
#X connect 20 0 19 0;
#X connect 21 0 60 0;
#X connect 21 0 61 0;
#X connect 21 0 62 0;
#X connect 22 0 21 0;
#X connect 23 0 22 0;
#X connect 23 0 34 0;
#X connect 23 0 36 0;
#X connect 23 0 38 0;
#X connect 27 0 34 0;
#X connect 28 0 2 0;
#X connect 29 0 36 0;
#X connect 30 0 3 0;
#X connect 31 0 4 0;
#X connect 32 0 38 0;
#X connect 33 0 24 0;
#X connect 34 0 33 0;
#X connect 35 0 25 0;
#X connect 36 0 35 0;
#X connect 37 0 26 0;
#X connect 38 0 37 0;
#X connect 39 0 41 0;
#X connect 40 0 39 0;
#X connect 41 0 43 0;
#X connect 43 0 44 0;
#X connect 44 0 45 0;
#X connect 44 1 49 0;
#X connect 45 0 46 0;
#X connect 46 0 45 1;
#X connect 46 0 48 0;
#X connect 47 0 9 0;
#X connect 48 0 42 0;
#X connect 48 0 10 0;
#X connect 49 0 55 0;
#X connect 49 1 51 0;
#X connect 50 0 40 0;
#X connect 50 0 5 0;
#X connect 50 0 7 0;
#X connect 51 0 53 0;
#X connect 51 1 52 0;
#X connect 52 0 56 0;
#X connect 54 0 15 0;
#X connect 57 0 47 0;
#X connect 57 0 1 0;
#X connect 58 0 69 0;
#X connect 60 0 20 0;
#X connect 60 0 29 0;
#X connect 61 0 16 0;
#X connect 61 0 32 0;
#X connect 62 0 18 0;
#X connect 62 0 27 1;
#X connect 63 0 64 0;
#X connect 64 0 59 1;
#X connect 66 0 59 0;
#X connect 67 0 70 1;
#X connect 68 0 67 0;
#X connect 69 0 70 0;
#X connect 69 0 71 0;
#X connect 70 0 66 1;
#X connect 71 0 66 2;
#X connect 71 0 66 3;
