#N canvas -5 123 1680 967 12;
#X declare -lib Gem;
#X obj 120 186 dac~;
#X obj 106 24 osc~ 100;
#X obj 234 29 vsl 19 162 1e-05 1 1 0 empty empty volume 0 -9 0 12 #fcfcfc #000000 #000000 0 1;
#X obj 108 94 *~;
#X msg 159 65 0;
#X obj 384 67 declare -lib Gem;
#X obj 379 140 gemhead;
#X obj 378 183 pix_image ./photos/cat1.jpg;
#X obj 377 279 translateXYZ;
#X floatatom 403 216 5 0 0 0 - - - 0;
#X floatatom 449 217 5 0 0 0 - - - 0;
#X floatatom 492 218 5 0 0 0 - - - 0;
#X obj 373 323 pix_draw;
#X connect 1 0 3 0;
#X connect 2 0 3 1;
#X connect 3 0 0 0;
#X connect 4 0 3 1;
#X connect 6 0 7 0;
#X connect 7 0 8 0;
#X connect 8 0 12 0;
#X connect 9 0 8 1;
#X connect 10 0 8 2;
#X connect 11 0 8 3;
