#N canvas 0 25 1440 847 12;
#X floatatom 400 -40 5 0 0 0 - - - 0;
#X floatatom 341 -39 5 0 0 0 - - - 0;
#X floatatom 457 -39 5 0 0 0 - - - 0;
#X obj 341 -13 s x;
#X obj 400 -15 s y;
#X obj 457 -12 s z;
#X msg 341 -64 0;
#X obj 319 -93 bng 15 250 50 0 empty empty empty 17 7 0 10 #fcfcfc #000000 #000000;
#X obj 120 180 r x;
#X obj 226 179 r y;
#X obj 120 207 t f f f f f f;
#X obj 226 208 t f f f f f f;
#X obj 339 207 t f f f f f f;
#X obj 339 179 r z;
#X obj 120 322 -;
#X obj 120 347 * -1;
#X floatatom 120 372 5 0 0 0 - - - 0;
#X obj 120 424 *;
#X obj 154 401 r S;
#X obj 120 492 +;
#X floatatom 120 517 5 0 0 0 - - - 0;
#X obj 232 314 -;
#X obj 255 287 r R;
#X obj 232 339 * -1;
#X obj 229 376 *;
#X obj 228 414 -;
#X obj 228 473 +;
#X floatatom 228 498 5 0 0 0 - - - 0;
#X obj 357 309 *;
#X obj 357 378 -;
#X obj 393 314 *;
#X obj 411 285 r B;
#X obj 357 458 +;
#X floatatom 365 499 5 0 0 0 - - - 0;
#X obj 102 649 f;
#X obj 102 674 pack f f f;
#X obj 21 519 tgl 15 0 empty empty empty 17 7 0 10 #fcfcfc #000000 #000000 0 1;
#X obj 30 576 bng 15 250 50 0 empty empty empty 17 7 0 10 #fcfcfc #000000 #000000;
#X obj 102 699 unpack f f f;
#X obj 102 726 s x;
#X obj 142 727 s y;
#X obj 183 726 s z;
#X obj 21 538 metro 100;
#X obj 120 449 * 0.01;
#X obj 228 439 * 0.01;
#X obj 357 403 * 0.01;
#X obj 31 -170 loadbang;
#X obj 31 -145 t b b b;
#X obj 1203 366 -, f 4;
#X obj 1203 396 /;
#X floatatom 1201 416 5 0 0 0 - - - 0;
#X floatatom 1308 285 5 0 0 0 - - - 0;
#X floatatom 1203 262 5 0 0 0 - - - 0;
#X msg 1297 169 clear;
#X obj 1252 312 -, f 4;
#X floatatom 1252 337 5 0 0 0 - - - 0;
#X obj 1252 361 t b f;
#X obj 1203 286 t b f b f, f 11;
#X obj 1204 194 t f f f;
#X obj 1203 445 * 2;
#X obj 1203 470 - 1;
#X floatatom 1201 494 5 0 0 0 - - - 0;
#X obj 1204 169 r z;
#X text 820 649 Output between 0 and 1;
#X obj 68 -67 vsl 15 128 5 1200 0 0 empty empty empty 0 -9 0 10 #fcfcfc #000000 #000000 0 1;
#X obj 68 69 s \$0-metro;
#X obj 34 485 r \$0-metro;
#X obj 803 520 pack f f;
#X obj 856 493 r \$0-metro;
#X obj 1003 366 -, f 4;
#X obj 1003 396 /;
#X floatatom 1001 416 5 0 0 0 - - - 0;
#X floatatom 1108 285 5 0 0 0 - - - 0;
#X floatatom 1003 262 5 0 0 0 - - - 0;
#X msg 1097 169 clear;
#X obj 1052 312 -, f 4;
#X floatatom 1052 337 5 0 0 0 - - - 0;
#X obj 1052 361 t b f;
#X obj 1003 286 t b f b f, f 11;
#X obj 1004 194 t f f f;
#X obj 1003 445 * 2;
#X obj 1003 470 - 1;
#X floatatom 1003 495 5 0 0 0 - - - 0;
#X obj 803 366 -, f 4;
#X obj 803 396 /;
#X floatatom 801 416 5 0 0 0 - - - 0;
#X floatatom 908 285 5 0 0 0 - - - 0;
#X floatatom 803 262 5 0 0 0 - - - 0;
#X msg 897 169 clear;
#X obj 852 312 -, f 4;
#X floatatom 852 337 5 0 0 0 - - - 0;
#X obj 852 361 t b f;
#X obj 803 286 t b f b f, f 11;
#X obj 804 194 t f f f;
#X obj 803 445 * 2;
#X obj 803 470 - 1;
#X floatatom 803 495 5 0 0 0 - - - 0;
#X obj 907 260 maximorum;
#X obj 1003 522 pack f f;
#X obj 1056 495 r \$0-metro;
#X obj 1203 520 pack f f;
#X obj 1256 493 r \$0-metro;
#X msg 459 -66 0.87;
#X msg 400 -66 0.54;
#X obj 804 169 r x;
#X obj 1004 169 r y;
#X obj 421 380 r h;
#X obj 277 404 r h;
#X obj 181 430 r h;
#X msg 55 -122 140;
#X obj 376 -237 inlet;
#X msg 551 -186 \$1;
#X msg 372 -183 0;
#X msg 463 -186 1;
#X text 1415 -60 speed : [5 \, 1200]ms \; simul timestep h \; [0.001 \, 0.02] clear \; start \; stop \; out~ a:[0 \, 1] \, b:[-1 \, 1] \; \; \; a a a b b b;
#X obj 376 -212 route stop start speed clear h, f 63;
#X msg 726 -182 \$1;
#X obj 1803 366 -, f 4;
#X obj 1803 396 /;
#X floatatom 1801 416 5 0 0 0 - - - 0;
#X floatatom 1908 285 5 0 0 0 - - - 0;
#X floatatom 1803 262 5 0 0 0 - - - 0;
#X msg 1897 169 clear;
#X obj 1852 312 -, f 4;
#X floatatom 1852 337 5 0 0 0 - - - 0;
#X obj 1852 361 t b f;
#X obj 1803 286 t b f b f, f 11;
#X obj 1804 194 t f f f;
#X obj 1803 445 * 2;
#X obj 1803 470 - 1;
#X floatatom 1803 495 5 0 0 0 - - - 0;
#X obj 1403 520 pack f f;
#X obj 1456 493 r \$0-metro;
#X obj 1603 366 -, f 4;
#X obj 1603 396 /;
#X floatatom 1601 416 5 0 0 0 - - - 0;
#X floatatom 1708 285 5 0 0 0 - - - 0;
#X floatatom 1603 262 5 0 0 0 - - - 0;
#X msg 1697 169 clear;
#X obj 1652 312 -, f 4;
#X floatatom 1652 337 5 0 0 0 - - - 0;
#X obj 1652 361 t b f;
#X obj 1603 286 t b f b f, f 11;
#X obj 1604 194 t f f f;
#X obj 1603 445 * 2;
#X obj 1603 470 - 1;
#X floatatom 1603 495 5 0 0 0 - - - 0;
#X obj 1403 366 -, f 4;
#X obj 1403 396 /;
#X floatatom 1401 416 5 0 0 0 - - - 0;
#X floatatom 1508 285 5 0 0 0 - - - 0;
#X floatatom 1403 262 5 0 0 0 - - - 0;
#X msg 1497 169 clear;
#X obj 1452 312 -, f 4;
#X floatatom 1452 337 5 0 0 0 - - - 0;
#X obj 1452 361 t b f;
#X obj 1403 286 t b f b f, f 11;
#X obj 1404 194 t f f f;
#X obj 1403 445 * 2;
#X obj 1403 470 - 1;
#X floatatom 1403 495 5 0 0 0 - - - 0;
#X obj 1603 522 pack f f;
#X obj 1656 495 r \$0-metro;
#X obj 1803 519 pack f f;
#X obj 1856 493 r \$0-metro;
#X obj 1404 169 r x2;
#X obj 1604 169 r y2;
#X obj 1804 169 r z2;
#X obj 450 207 t f f f f f f;
#X obj 556 208 t f f f f f f;
#X obj 669 207 t f f f f f f;
#X obj 450 322 -;
#X obj 450 347 * -1;
#X floatatom 450 372 5 0 0 0 - - - 0;
#X obj 450 424 *;
#X obj 450 492 +;
#X floatatom 450 517 5 0 0 0 - - - 0;
#X obj 562 314 -;
#X obj 562 339 * -1;
#X obj 559 376 *;
#X obj 558 414 -;
#X obj 558 473 +;
#X floatatom 558 498 5 0 0 0 - - - 0;
#X obj 687 309 *;
#X obj 687 378 -;
#X obj 723 314 *;
#X obj 687 458 +;
#X floatatom 695 499 5 0 0 0 - - - 0;
#X obj 432 649 f;
#X obj 432 674 pack f f f;
#X obj 432 699 unpack f f f;
#X obj 450 449 * 0.01;
#X obj 558 439 * 0.01;
#X obj 687 403 * 0.01;
#X obj 751 380 r h;
#X obj 607 404 r h;
#X obj 511 430 r h;
#X obj 450 180 r x2;
#X obj 556 179 r y2;
#X obj 669 179 r z2;
#X obj 585 287 r R2;
#X obj 741 285 r B2;
#X obj 485 401 r S2;
#X obj 432 726 s x2;
#X obj 472 727 s y2;
#X obj 513 726 s z2;
#X obj 342 -93 t b b b b b b b b b b b b b b b b b b, f 143;
#X floatatom 750 -43 5 0 0 0 - - - 0;
#X obj 750 -19 s S;
#X floatatom 692 -41 5 0 0 0 - - - 0;
#X obj 692 -17 s h;
#X floatatom 811 -41 5 0 0 0 - - - 0;
#X obj 811 -18 s R;
#X floatatom 870 -42 5 0 0 0 - - - 0;
#X obj 871 -20 s B;
#X obj 811 -18;
#X msg 870 -66 2.66667;
#X msg 752 -67 10;
#X msg 811 -66 28;
#X msg 694 -65 0.005;
#X floatatom 929 -43 5 0 0 0 - - - 0;
#X floatatom 987 -41 5 0 0 0 - - - 0;
#X floatatom 1047 -42 5 0 0 0 - - - 0;
#X obj 987 -17;
#X floatatom 576 -38 5 0 0 0 - - - 0;
#X floatatom 518 -39 5 0 0 0 - - - 0;
#X floatatom 636 -39 5 0 0 0 - - - 0;
#X obj 518 -15 s x2;
#X obj 576 -15 s y2;
#X obj 636 -14 s z2;
#X msg 518 -64 0.3;
#X msg 576 -63 0.74;
#X msg 635 -64 1.3;
#X obj 929 -18 s S2;
#X obj 987 -17 s R2;
#X obj 1047 -16 s B2;
#X msg 1046 -66 2.4;
#X msg 987 -67 25;
#X msg 929 -66 13;
#X obj 372 -157 s \$0-OnOff;
#X obj 463 -159 s \$0-OnOff;
#X obj 30 453 r \$0-OnOff;
#X obj 638 -129 s \$0-bngCLear;
#X obj 901 135 r \$0-bngCLear;
#X obj 1098 135 r \$0-bngCLear;
#X obj 1298 135 r \$0-bngCLear;
#X obj 1495 135 r \$0-bngCLear;
#X obj 1698 135 r \$0-bngCLear;
#X obj 1895 135 r \$0-bngCLear;
#X obj 726 -157 s h;
#X obj 551 -160 s \$0-speed;
#X obj 72 -97 r \$0-speed;
#X obj 647 -159 bng 15 250 50 0 empty empty empty 17 7 0 10 #fcfcfc #000000 #000000;
#X obj 315 603 delay 1.3754;
#X obj 1939 520 pack f f;
#X obj 1992 493 r \$0-metro;
#X obj 2080 519 pack f f;
#X obj 2133 492 r \$0-metro;
#X obj 1938 492 *;
#X obj 2078 492 *;
#X obj 1742 545 s \$0-z3;
#X obj 1138 548 s \$0-z4;
#X obj 726 547 s \$0-x4;
#X obj 1342 543 s \$0-x3;
#X obj 1956 462 r \$0-z4;
#X obj 1938 437 r \$0-z3;
#X obj 2078 429 r \$0-x3;
#X obj 2096 454 r \$0-x4;
#X obj 2183 588 outlet;
#X obj 63 572 s \$0-bngmetro;
#X obj 2182 553 r \$0-bngmetro;
#X obj 803 235 minomorum;
#X obj 1003 235 minomorum;
#X obj 1107 260 maximorum;
#X obj 1203 235 minomorum;
#X obj 1307 260 maximorum;
#X obj 1403 235 minomorum;
#X obj 1507 260 maximorum;
#X obj 1603 235 minomorum;
#X obj 1707 260 maximorum;
#X obj 1803 235 minomorum;
#X obj 1907 260 maximorum;
#X obj 803 544 line \$1 \$2;
#X obj 803 569 *;
#X obj 802 595 outlet;
#X obj 1003 545 line \$1 \$2;
#X obj 1003 571 *;
#X obj 1002 597 outlet;
#X obj 1203 544 line \$1 \$2;
#X obj 1203 569 *;
#X obj 1202 595 outlet;
#X obj 1403 544 line \$1 \$2;
#X obj 1403 569 *;
#X obj 1402 595 outlet;
#X obj 1603 571 *;
#X obj 1603 546 line \$1 \$2;
#X obj 1602 597 outlet;
#X obj 1802 595 outlet;
#X obj 1803 544 line \$1 \$2;
#X obj 1803 569 *;
#X obj 1939 569 *;
#X obj 1939 544 line \$1 \$2;
#X obj 1938 595 outlet;
#X obj 2080 543 line \$1 \$2;
#X obj 2080 568 *;
#X obj 2079 594 outlet;
#X floatatom 752 659 5 0 0 0 - - - 0;
#X floatatom 133 22 5 0 0 0 - - - 0;
#X connect 0 0 4 0;
#X connect 1 0 3 0;
#X connect 2 0 5 0;
#X connect 6 0 1 0;
#X connect 7 0 206 0;
#X connect 8 0 10 0;
#X connect 9 0 11 0;
#X connect 10 0 14 0;
#X connect 10 1 19 1;
#X connect 10 2 24 0;
#X connect 10 3 28 0;
#X connect 11 0 14 1;
#X connect 11 1 25 1;
#X connect 11 2 26 1;
#X connect 11 3 28 1;
#X connect 12 0 21 0;
#X connect 12 1 30 0;
#X connect 12 2 32 1;
#X connect 13 0 12 0;
#X connect 14 0 15 0;
#X connect 15 0 16 0;
#X connect 16 0 17 0;
#X connect 17 0 43 0;
#X connect 18 0 17 1;
#X connect 19 0 20 0;
#X connect 20 0 34 1;
#X connect 21 0 23 0;
#X connect 22 0 21 1;
#X connect 23 0 24 1;
#X connect 24 0 25 0;
#X connect 25 0 44 0;
#X connect 26 0 27 0;
#X connect 27 0 35 1;
#X connect 28 0 29 0;
#X connect 29 0 45 0;
#X connect 30 0 29 1;
#X connect 31 0 30 1;
#X connect 32 0 33 0;
#X connect 33 0 35 2;
#X connect 34 0 35 0;
#X connect 35 0 38 0;
#X connect 36 0 42 0;
#X connect 37 0 34 0;
#X connect 37 0 253 0;
#X connect 38 0 39 0;
#X connect 38 1 40 0;
#X connect 38 2 41 0;
#X connect 42 0 37 0;
#X connect 42 0 269 0;
#X connect 43 0 19 0;
#X connect 44 0 26 0;
#X connect 45 0 32 0;
#X connect 46 0 47 0;
#X connect 47 0 36 0;
#X connect 47 1 109 0;
#X connect 47 2 7 0;
#X connect 48 0 49 0;
#X connect 49 0 50 0;
#X connect 50 0 59 0;
#X connect 51 0 54 0;
#X connect 52 0 57 0;
#X connect 53 0 274 0;
#X connect 53 0 275 0;
#X connect 54 0 55 0;
#X connect 55 0 56 0;
#X connect 56 0 49 0;
#X connect 56 1 49 1;
#X connect 57 0 48 0;
#X connect 57 1 48 1;
#X connect 57 2 54 0;
#X connect 57 3 54 1;
#X connect 58 0 48 0;
#X connect 58 1 274 0;
#X connect 58 2 275 0;
#X connect 59 0 60 0;
#X connect 60 0 61 0;
#X connect 61 0 100 0;
#X connect 61 0 261 0;
#X connect 62 0 58 0;
#X connect 64 0 65 0;
#X connect 64 0 307 0;
#X connect 66 0 42 1;
#X connect 67 0 282 0;
#X connect 68 0 67 1;
#X connect 69 0 70 0;
#X connect 70 0 71 0;
#X connect 71 0 80 0;
#X connect 72 0 75 0;
#X connect 73 0 78 0;
#X connect 74 0 272 0;
#X connect 74 0 273 0;
#X connect 75 0 76 0;
#X connect 76 0 77 0;
#X connect 77 0 70 0;
#X connect 77 1 70 1;
#X connect 78 0 69 0;
#X connect 78 1 69 1;
#X connect 78 2 75 0;
#X connect 78 3 75 1;
#X connect 79 0 69 0;
#X connect 79 1 272 0;
#X connect 79 2 273 0;
#X connect 80 0 81 0;
#X connect 81 0 82 0;
#X connect 82 0 98 0;
#X connect 83 0 84 0;
#X connect 84 0 85 0;
#X connect 85 0 94 0;
#X connect 86 0 89 0;
#X connect 87 0 92 0;
#X connect 88 0 97 0;
#X connect 88 0 271 0;
#X connect 89 0 90 0;
#X connect 90 0 91 0;
#X connect 91 0 84 0;
#X connect 91 1 84 1;
#X connect 92 0 83 0;
#X connect 92 1 83 1;
#X connect 92 2 89 0;
#X connect 92 3 89 1;
#X connect 93 0 83 0;
#X connect 93 1 271 0;
#X connect 93 2 97 0;
#X connect 94 0 95 0;
#X connect 95 0 96 0;
#X connect 96 0 67 0;
#X connect 96 0 262 0;
#X connect 97 0 86 0;
#X connect 98 0 285 0;
#X connect 99 0 98 1;
#X connect 100 0 288 0;
#X connect 101 0 100 1;
#X connect 102 0 2 0;
#X connect 103 0 0 0;
#X connect 104 0 93 0;
#X connect 105 0 79 0;
#X connect 106 0 45 1;
#X connect 107 0 44 1;
#X connect 108 0 43 1;
#X connect 109 0 64 0;
#X connect 110 0 115 0;
#X connect 111 0 250 0;
#X connect 112 0 239 0;
#X connect 113 0 240 0;
#X connect 115 0 112 0;
#X connect 115 1 113 0;
#X connect 115 2 111 0;
#X connect 115 3 242 0;
#X connect 115 4 116 0;
#X connect 116 0 249 0;
#X connect 117 0 118 0;
#X connect 118 0 119 0;
#X connect 119 0 128 0;
#X connect 120 0 123 0;
#X connect 121 0 126 0;
#X connect 122 0 280 0;
#X connect 122 0 281 0;
#X connect 123 0 124 0;
#X connect 124 0 125 0;
#X connect 125 0 118 0;
#X connect 125 1 118 1;
#X connect 126 0 117 0;
#X connect 126 1 117 1;
#X connect 126 2 123 0;
#X connect 126 3 123 1;
#X connect 127 0 117 0;
#X connect 127 1 280 0;
#X connect 127 2 281 0;
#X connect 128 0 129 0;
#X connect 129 0 130 0;
#X connect 130 0 163 0;
#X connect 130 0 260 0;
#X connect 131 0 291 0;
#X connect 132 0 131 1;
#X connect 133 0 134 0;
#X connect 134 0 135 0;
#X connect 135 0 144 0;
#X connect 136 0 139 0;
#X connect 137 0 142 0;
#X connect 138 0 278 0;
#X connect 138 0 279 0;
#X connect 139 0 140 0;
#X connect 140 0 141 0;
#X connect 141 0 134 0;
#X connect 141 1 134 1;
#X connect 142 0 133 0;
#X connect 142 1 133 1;
#X connect 142 2 139 0;
#X connect 142 3 139 1;
#X connect 143 0 133 0;
#X connect 143 1 278 0;
#X connect 143 2 279 0;
#X connect 144 0 145 0;
#X connect 145 0 146 0;
#X connect 146 0 161 0;
#X connect 147 0 148 0;
#X connect 148 0 149 0;
#X connect 149 0 158 0;
#X connect 150 0 153 0;
#X connect 151 0 156 0;
#X connect 152 0 276 0;
#X connect 152 0 277 0;
#X connect 153 0 154 0;
#X connect 154 0 155 0;
#X connect 155 0 148 0;
#X connect 155 1 148 1;
#X connect 156 0 147 0;
#X connect 156 1 147 1;
#X connect 156 2 153 0;
#X connect 156 3 153 1;
#X connect 157 0 147 0;
#X connect 157 1 276 0;
#X connect 157 2 277 0;
#X connect 158 0 159 0;
#X connect 159 0 160 0;
#X connect 160 0 131 0;
#X connect 160 0 263 0;
#X connect 161 0 295 0;
#X connect 162 0 161 1;
#X connect 163 0 298 0;
#X connect 164 0 163 1;
#X connect 165 0 157 0;
#X connect 166 0 143 0;
#X connect 167 0 127 0;
#X connect 168 0 171 0;
#X connect 168 1 175 1;
#X connect 168 2 179 0;
#X connect 168 3 183 0;
#X connect 169 0 171 1;
#X connect 169 1 180 1;
#X connect 169 2 181 1;
#X connect 169 3 183 1;
#X connect 170 0 177 0;
#X connect 170 1 185 0;
#X connect 170 2 186 1;
#X connect 171 0 172 0;
#X connect 172 0 173 0;
#X connect 173 0 174 0;
#X connect 174 0 191 0;
#X connect 175 0 176 0;
#X connect 176 0 188 1;
#X connect 177 0 178 0;
#X connect 178 0 179 1;
#X connect 179 0 180 0;
#X connect 180 0 192 0;
#X connect 181 0 182 0;
#X connect 182 0 189 1;
#X connect 183 0 184 0;
#X connect 184 0 193 0;
#X connect 185 0 184 1;
#X connect 186 0 187 0;
#X connect 187 0 189 2;
#X connect 188 0 189 0;
#X connect 189 0 190 0;
#X connect 190 0 203 0;
#X connect 190 1 204 0;
#X connect 190 2 205 0;
#X connect 191 0 175 0;
#X connect 192 0 181 0;
#X connect 193 0 186 0;
#X connect 194 0 193 1;
#X connect 195 0 192 1;
#X connect 196 0 191 1;
#X connect 197 0 168 0;
#X connect 198 0 169 0;
#X connect 199 0 170 0;
#X connect 200 0 177 1;
#X connect 201 0 185 1;
#X connect 202 0 174 1;
#X connect 206 0 6 0;
#X connect 206 1 103 0;
#X connect 206 2 102 0;
#X connect 206 3 230 0;
#X connect 206 4 231 0;
#X connect 206 5 232 0;
#X connect 206 6 219 0;
#X connect 206 7 217 0;
#X connect 206 8 218 0;
#X connect 206 9 216 0;
#X connect 206 10 238 0;
#X connect 206 11 237 0;
#X connect 206 12 236 0;
#X connect 207 0 208 0;
#X connect 209 0 210 0;
#X connect 211 0 212 0;
#X connect 211 0 215 0;
#X connect 213 0 214 0;
#X connect 216 0 213 0;
#X connect 217 0 207 0;
#X connect 218 0 211 0;
#X connect 219 0 209 0;
#X connect 220 0 233 0;
#X connect 221 0 223 0;
#X connect 221 0 234 0;
#X connect 222 0 235 0;
#X connect 224 0 228 0;
#X connect 225 0 227 0;
#X connect 226 0 229 0;
#X connect 230 0 225 0;
#X connect 231 0 224 0;
#X connect 232 0 226 0;
#X connect 236 0 222 0;
#X connect 237 0 221 0;
#X connect 238 0 220 0;
#X connect 241 0 36 0;
#X connect 243 0 88 0;
#X connect 244 0 74 0;
#X connect 245 0 53 0;
#X connect 246 0 152 0;
#X connect 247 0 138 0;
#X connect 248 0 122 0;
#X connect 251 0 64 0;
#X connect 252 0 242 0;
#X connect 253 0 188 0;
#X connect 254 0 301 0;
#X connect 255 0 254 1;
#X connect 256 0 303 0;
#X connect 257 0 256 1;
#X connect 258 0 254 0;
#X connect 259 0 256 0;
#X connect 264 0 258 1;
#X connect 265 0 258 0;
#X connect 266 0 259 0;
#X connect 267 0 259 1;
#X connect 270 0 268 0;
#X connect 271 0 87 0;
#X connect 272 0 73 0;
#X connect 273 0 72 0;
#X connect 274 0 52 0;
#X connect 275 0 51 0;
#X connect 276 0 151 0;
#X connect 277 0 150 0;
#X connect 278 0 137 0;
#X connect 279 0 136 0;
#X connect 280 0 121 0;
#X connect 281 0 120 0;
#X connect 282 0 283 0;
#X connect 282 0 283 1;
#X connect 283 0 284 0;
#X connect 283 0 306 0;
#X connect 285 0 286 0;
#X connect 285 0 286 1;
#X connect 286 0 287 0;
#X connect 288 0 289 0;
#X connect 288 0 289 1;
#X connect 289 0 290 0;
#X connect 291 0 292 0;
#X connect 291 0 292 1;
#X connect 292 0 293 0;
#X connect 294 0 296 0;
#X connect 295 0 294 0;
#X connect 295 0 294 1;
#X connect 298 0 299 0;
#X connect 298 0 299 1;
#X connect 299 0 297 0;
#X connect 300 0 302 0;
#X connect 301 0 300 0;
#X connect 301 0 300 1;
#X connect 303 0 304 0;
#X connect 303 0 304 1;
#X connect 304 0 305 0;
#X coords 0 847 1 846 182 142 0;
