#N canvas 548 328 450 300 12;
#X obj 138 15 inlet;
#X obj 220 155 spigot;
#X floatatom 220 180 5 0 0 0 - - -;
#X obj 214 82 t f f;
#X obj 139 48 route clear;
#X msg 150 130 0;
#X obj 220 204 t f f;
#X obj 220 255 outlet;
#X obj 249 117 >;
#X obj 290 82 r \$0-OldXMax;
#X obj 252 230 s \$0-OldXMax;
#X connect 0 0 4 0;
#X connect 1 0 2 0;
#X connect 2 0 6 0;
#X connect 3 0 1 0;
#X connect 3 1 8 0;
#X connect 4 0 5 0;
#X connect 4 1 3 0;
#X connect 5 0 2 0;
#X connect 6 0 7 0;
#X connect 6 1 10 0;
#X connect 8 0 1 1;
#X connect 9 0 8 1;
