#N canvas 637 88 483 422 10;
#X obj 88 130 allpass100ms;
#X floatatom 284 18 5 0 0 0 - - -, f 5;
#X obj 125 177 allpass100ms;
#X obj 110 66 allpass100ms;
#X obj 133 243 allpass100ms;
#X obj 109 -71 inlet~;
#X obj 306 -68 inlet;
#X obj 298 -34 clip 0 1;
#X obj 133 306 outlet~;
#X obj 175 -21 loadbang;
#X msg 140 36 3.595;
#X msg 119 99 4.771;
#X msg 158 150 9.307;
#X msg 161 209 12.73;
#X obj 89 175 +~;
#X obj 91 241 +~;
#X obj 121 275 +~;
#X connect 0 0 14 0;
#X connect 1 0 0 2;
#X connect 1 0 2 2;
#X connect 1 0 3 2;
#X connect 1 0 4 2;
#X connect 2 0 15 1;
#X connect 3 0 14 1;
#X connect 4 0 16 1;
#X connect 5 0 3 0;
#X connect 5 0 0 0;
#X connect 6 0 7 0;
#X connect 7 0 1 0;
#X connect 9 0 10 0;
#X connect 9 0 11 0;
#X connect 9 0 12 0;
#X connect 9 0 13 0;
#X connect 10 0 3 1;
#X connect 11 0 0 1;
#X connect 12 0 2 1;
#X connect 13 0 4 1;
#X connect 14 0 15 0;
#X connect 15 0 16 0;
#X connect 16 0 8 0;
