#N canvas 415 83 551 525 10;
#X obj 0 0 cnv 15 200 220 empty empty space_station 20 12 0 14 -233017
-66577 0;
#X obj 125 387 *~;
#X obj 278 390 *~;
#X obj 88 388 *~;
#X obj 239 390 *~;
#X floatatom 165 311 5 0 1 0 drywet - -, f 5;
#X obj 257 414 +~;
#X obj 102 416 +~;
#X obj 166 334 - 1;
#X obj 165 355 * -1;
#X obj 317 267 spacestation;
#X obj 4 37 hsl 128 15 0 127 0 0 empty empty inlp -2 -8 0 10 -262144
-1 -1 12700 1;
#X obj 205 37 mtof;
#X floatatom 142 37 7 0 0 0 - - -, f 7;
#X obj 4 68 hsl 128 15 0 127 0 0 empty empty inhp -2 -8 0 10 -262144
-1 -1 0 1;
#X obj 204 68 mtof;
#X floatatom 142 67 7 0 0 0 - - -, f 7;
#X obj 4 102 hsl 128 15 0 127 0 0 empty empty fblp -2 -8 0 10 -262144
-1 -1 12700 1;
#X obj 205 102 mtof;
#X floatatom 141 102 7 0 0 0 - - -, f 7;
#X obj 5 136 hsl 128 15 0 127 0 0 empty empty fbhp -2 -8 0 10 -262144
-1 -1 0 1;
#X obj 205 136 mtof;
#X floatatom 142 136 7 0 0 0 - - -, f 7;
#X obj 6 169 hsl 128 15 0 100 0 0 empty empty fbgain -2 -8 0 10 -262144
-1 -1 10160 1;
#X floatatom 145 169 7 0 0 0 - - -, f 7;
#X msg 248 38 128;
#X msg 248 68 0;
#X msg 248 103 128;
#X msg 250 136 0;
#X obj 283 -1 loadbang;
#X obj 207 169 * 0.03;
#X obj 308 198 inlet~;
#X obj 103 457 outlet~;
#X obj 255 455 outlet~;
#X obj 6 199 hsl 128 15 0 100 0 0 empty empty mix -2 -8 0 10 -262144
-1 -1 6350 1;
#X floatatom 144 199 5 0 0 0 - - -, f 5;
#X obj 207 199 * 0.01;
#X msg 260 198 50;
#X msg 259 169 80;
#X connect 1 0 7 1;
#X connect 2 0 6 1;
#X connect 3 0 7 0;
#X connect 4 0 6 0;
#X connect 5 0 1 0;
#X connect 5 0 2 0;
#X connect 5 0 8 0;
#X connect 6 0 33 0;
#X connect 7 0 32 0;
#X connect 8 0 9 0;
#X connect 9 0 3 0;
#X connect 9 0 4 0;
#X connect 10 0 1 1;
#X connect 10 1 2 1;
#X connect 11 0 12 0;
#X connect 12 0 13 0;
#X connect 13 0 10 1;
#X connect 14 0 15 0;
#X connect 15 0 16 0;
#X connect 16 0 10 2;
#X connect 17 0 18 0;
#X connect 18 0 19 0;
#X connect 19 0 10 3;
#X connect 20 0 21 0;
#X connect 21 0 22 0;
#X connect 22 0 10 4;
#X connect 23 0 30 0;
#X connect 24 0 10 5;
#X connect 25 0 11 0;
#X connect 26 0 14 0;
#X connect 27 0 17 0;
#X connect 28 0 20 0;
#X connect 29 0 25 0;
#X connect 29 0 26 0;
#X connect 29 0 27 0;
#X connect 29 0 28 0;
#X connect 29 0 38 0;
#X connect 29 0 37 0;
#X connect 30 0 24 0;
#X connect 31 0 10 0;
#X connect 31 0 4 1;
#X connect 31 0 3 1;
#X connect 34 0 35 0;
#X connect 35 0 36 0;
#X connect 36 0 5 0;
#X connect 37 0 34 0;
#X connect 38 0 23 0;
#X coords 0 -1 1 1 200 220 2 0 0;
